# xmcd
#
# Track frame offsets: 
#        183
#        34395
#        65125
#        92480
#        129553
#        156275
#        197363
#        211870
#        250813
#        287035
#        324498
#
# Disc length: 4706 seconds
#
# Revision: 3
# Processed by: cddbd v1.5.2PL0 Copyright (c) Steve Scherf et al.
# Submitted via: ExactAudioCopy v0.95b4
#
DISCID=9d12600b
DTITLE=Eric Clapton - 1990-01-24 - Class Blues
DYEAR=1990
DGENRE=Rock
TTITLE0=Pretending
TTITLE1=Running On Faith
TTITLE2=Bad Love
TTITLE3=Lay Down Sally
TTITLE4=Before You Accuse Me
TTITLE5=Old Love
TTITLE6=Instrumental
TTITLE7=Layla
TTITLE8=Crossroads
TTITLE9=Sunshine Of Your Love
TTITLE10=Cocaine
EXTD=
EXTT0=
EXTT1=
EXTT2=
EXTT3=
EXTT4=
EXTT5=
EXTT6=
EXTT7=
EXTT8=
EXTT9=
EXTT10=
PLAYORDER=
